<!-- <svg xmlns="http://www.w3.org/2000/svg" xmlns:xlink="http://www.w3.org/1999/xlink" version="1.1" width="1000" height="1000" viewBox="0 0 1000 1000" xml:space="preserve">
<desc>Created with Fabric.js 3.5.0</desc>
<defs>
</defs>
<rect x="0" y="0" width="100%" height="100%" fill="rgba(173,35,35,0)"/>
<g transform="matrix(0.0628 0 0 0.0628 57.4493 157.4493)" id="246324">
<path style="stroke: none; stroke-width: 1; stroke-dasharray: none; stroke-linecap: butt; stroke-dashoffset: 0; stroke-linejoin: miter; stroke-miterlimit: 4; is-custom-font: none; font-file-url: none; fill: rgb(0,119,183); fill-rule: nonzero; opacity: 1;" vector-effect="non-scaling-stroke" transform=" translate(-191, -191)" d="M 347.445 0 H 34.555 C 15.471 0 0 15.471 0 34.555 v 312.889 C 0 366.529 15.471 382 34.555 382 h 312.889 C 366.529 382 382 366.529 382 347.444 V 34.555 C 382 15.471 366.529 0 347.445 0 z M 118.207 329.844 c 0 5.554 -4.502 10.056 -10.056 10.056 H 65.345 c -5.554 0 -10.056 -4.502 -10.056 -10.056 V 150.403 c 0 -5.554 4.502 -10.056 10.056 -10.056 h 42.806 c 5.554 0 10.056 4.502 10.056 10.056 V 329.844 z M 86.748 123.432 c -22.459 0 -40.666 -18.207 -40.666 -40.666 S 64.289 42.1 86.748 42.1 s 40.666 18.207 40.666 40.666 S 109.208 123.432 86.748 123.432 z M 341.91 330.654 c 0 5.106 -4.14 9.246 -9.246 9.246 H 286.73 c -5.106 0 -9.246 -4.14 -9.246 -9.246 v -84.168 c 0 -12.556 3.683 -55.021 -32.813 -55.021 c -28.309 0 -34.051 29.066 -35.204 42.11 v 97.079 c 0 5.106 -4.139 9.246 -9.246 9.246 h -44.426 c -5.106 0 -9.246 -4.14 -9.246 -9.246 V 149.593 c 0 -5.106 4.14 -9.246 9.246 -9.246 h 44.426 c 5.106 0 9.246 4.14 9.246 9.246 v 15.655 c 10.497 -15.753 26.097 -27.912 59.312 -27.912 c 73.552 0 73.131 68.716 73.131 106.472 L 341.91 330.654 L 341.91 330.654 z" stroke-linecap="round"/>
</g>
</svg> -->

<svg xmlns="http://www.w3.org/2000/svg" x="0px" y="0px" width="100" height="100" viewBox="0,0,256,256">
<g transform="translate(-42.24,-42.24) scale(1.33,1.33)"><g fill="none" fill-rule="nonzero" stroke="none" stroke-width="1" stroke-linecap="butt" stroke-linejoin="miter" stroke-miterlimit="10" stroke-dasharray="" stroke-dashoffset="0" font-family="none" font-weight="none" font-size="none" text-anchor="none" style="mix-blend-mode: normal"><g transform="scale(5.33333,5.33333)"><path d="M42,37c0,2.762 -2.238,5 -5,5h-26c-2.761,0 -5,-2.238 -5,-5v-26c0,-2.762 2.239,-5 5,-5h26c2.762,0 5,2.238 5,5z" fill="#0288d1"></path><path d="M12,19h5v17h-5zM14.485,17h-0.028c-1.492,0 -2.457,-1.112 -2.457,-2.501c0,-1.419 0.995,-2.499 2.514,-2.499c1.521,0 2.458,1.08 2.486,2.499c0,1.388 -0.965,2.501 -2.515,2.501zM36,36h-5v-9.099c0,-2.198 -1.225,-3.698 -3.192,-3.698c-1.501,0 -2.313,1.012 -2.707,1.99c-0.144,0.35 -0.101,1.318 -0.101,1.807v9h-5v-17h5v2.616c0.721,-1.116 1.85,-2.616 4.738,-2.616c3.578,0 6.261,2.25 6.261,7.274l0.001,9.726z" fill="#ffffff"></path></g></g></g>
</svg>