<?xml version="1.0" encoding="UTF-8"?>
<svg xmlns="http://www.w3.org/2000/svg" xmlns:xlink="http://www.w3.org/1999/xlink" width="28px" height="28px" viewBox="0 0 28 28" version="1.1">
<g id="surface1">
<rect x="0" y="0" width="28" height="28" style="fill:rgb(94.901961%,39.607843%,13.333333%);fill-opacity:1;stroke:none;"/>
<path style=" stroke:none;fill-rule:nonzero;fill:rgb(100%,100%,100%);fill-opacity:1;" d="M 11.542969 17.496094 L 15.824219 17.496094 L 15.824219 16.332031 L 12.867188 16.332031 L 12.867188 14.523438 L 15.59375 14.523438 L 15.59375 13.359375 L 12.867188 13.359375 L 12.867188 11.667969 L 15.824219 11.667969 L 15.824219 10.503906 L 11.542969 10.503906 Z M 21.546875 15.59375 C 21.546875 14.199219 21.453125 13.894531 19.574219 13.445312 C 18.367188 13.148438 18.34375 13.128906 18.34375 12.332031 C 18.34375 11.722656 18.503906 11.53125 19.394531 11.53125 C 20.003906 11.53125 20.6875 11.617188 21.261719 11.742188 L 21.410156 10.628906 C 20.71875 10.472656 19.984375 10.398438 19.375 10.398438 C 17.601562 10.398438 17.023438 11.03125 17.023438 12.300781 C 17.023438 13.78125 17.253906 14.105469 18.945312 14.484375 C 20.203125 14.753906 20.222656 14.820312 20.222656 15.59375 C 20.222656 16.265625 20.066406 16.46875 19.113281 16.46875 C 18.417969 16.46875 17.789062 16.339844 17.136719 16.140625 L 16.90625 17.179688 C 17.367188 17.402344 18.292969 17.601562 19.089844 17.601562 C 21.160156 17.601562 21.546875 16.917969 21.546875 15.59375 Z M 23.980469 12.992188 C 23.980469 11.921875 24.496094 11.710938 25.734375 11.710938 C 25.957031 11.710938 26.417969 11.742188 26.722656 11.804688 L 26.804688 10.734375 C 26.492188 10.660156 25.988281 10.609375 25.597656 10.609375 C 23.6875 10.609375 22.703125 11.199219 22.703125 13.042969 L 22.703125 15.59375 C 22.703125 16.800781 23.058594 17.601562 24.863281 17.601562 C 26.511719 17.601562 27.015625 16.78125 27.015625 15.691406 L 27.015625 15.1875 C 27.015625 13.980469 26.5 13.453125 25.230469 13.453125 C 24.78125 13.453125 24.347656 13.515625 23.980469 13.644531 Z M 25.03125 14.554688 C 25.492188 14.554688 25.734375 14.714844 25.734375 15.21875 L 25.734375 15.730469 C 25.734375 16.265625 25.523438 16.5 24.863281 16.5 C 24.203125 16.5 23.980469 16.308594 23.980469 15.730469 L 23.980469 14.777344 C 24.277344 14.652344 24.652344 14.554688 25.03125 14.554688 Z M 25.03125 14.554688 "/>
</g>
</svg>
