<?xml version="1.0" encoding="UTF-8"?>
<svg xmlns="http://www.w3.org/2000/svg" xmlns:xlink="http://www.w3.org/1999/xlink" width="30px" height="30px" viewBox="0 0 30 30" version="1.1">
<g id="surface1">
<path style=" stroke:none;fill-rule:nonzero;fill:rgb(100%,42.352941%,21.568627%);fill-opacity:1;" d="M 29.878906 16.90625 C 30.925781 8.6875 25.125 1.171875 16.917969 0.121094 C 8.714844 -0.925781 1.171875 4.875 0.121094 13.082031 C -0.925781 21.285156 4.875 28.8125 13.082031 29.878906 C 21.300781 30.925781 28.8125 25.125 29.878906 16.90625 Z M 29.878906 16.90625 "/>
<path style=" stroke:none;fill-rule:nonzero;fill:rgb(100%,100%,100%);fill-opacity:1;" d="M 20.414062 9.632812 L 14.085938 15.960938 L 12.300781 14.175781 C 18.523438 7.953125 19.140625 8.492188 20.414062 9.632812 Z M 20.414062 9.632812 "/>
<path style=" stroke:none;fill-rule:nonzero;fill:rgb(100%,42.352941%,21.568627%);fill-opacity:1;" d="M 14.085938 16.109375 C 14.039062 16.109375 14.011719 16.09375 13.980469 16.066406 L 12.179688 14.28125 C 12.121094 14.21875 12.121094 14.128906 12.179688 14.070312 C 18.507812 7.742188 19.167969 8.339844 20.503906 9.539062 C 20.535156 9.570312 20.550781 9.601562 20.550781 9.644531 C 20.550781 9.691406 20.535156 9.722656 20.503906 9.75 L 14.175781 16.066406 C 14.160156 16.09375 14.113281 16.109375 14.085938 16.109375 Z M 12.511719 14.175781 L 14.085938 15.75 L 20.1875 9.644531 C 19.078125 8.65625 18.328125 8.355469 12.511719 14.175781 Z M 12.511719 14.175781 "/>
<path style=" stroke:none;fill-rule:nonzero;fill:rgb(100%,100%,100%);fill-opacity:1;" d="M 15.898438 17.773438 L 14.175781 16.050781 L 20.503906 9.722656 C 22.199219 11.429688 19.664062 14.207031 15.898438 17.773438 Z M 15.898438 17.773438 "/>
<path style=" stroke:none;fill-rule:nonzero;fill:rgb(100%,42.352941%,21.568627%);fill-opacity:1;" d="M 15.898438 17.925781 C 15.855469 17.925781 15.824219 17.910156 15.792969 17.878906 L 14.070312 16.15625 C 14.039062 16.125 14.039062 16.09375 14.039062 16.050781 C 14.039062 16.003906 14.054688 15.976562 14.085938 15.945312 L 20.414062 9.617188 C 20.472656 9.554688 20.5625 9.554688 20.625 9.617188 C 21.015625 9.976562 21.222656 10.484375 21.207031 11.011719 C 21.179688 12.675781 19.289062 14.789062 16.019531 17.878906 C 15.976562 17.910156 15.929688 17.925781 15.898438 17.925781 Z M 14.386719 16.050781 C 15.34375 17.023438 15.75 17.414062 15.898438 17.566406 C 18.417969 15.164062 20.863281 12.707031 20.878906 11.011719 C 20.894531 10.621094 20.742188 10.230469 20.488281 9.929688 Z M 14.386719 16.050781 "/>
<path style=" stroke:none;fill-rule:nonzero;fill:rgb(100%,100%,100%);fill-opacity:1;" d="M 12.332031 14.21875 L 13.605469 15.496094 C 13.636719 15.523438 13.636719 15.554688 13.605469 15.585938 C 13.589844 15.601562 13.589844 15.601562 13.574219 15.601562 L 10.9375 16.167969 C 10.800781 16.183594 10.679688 16.09375 10.652344 15.960938 C 10.636719 15.886719 10.664062 15.808594 10.710938 15.765625 L 12.242188 14.234375 C 12.269531 14.207031 12.316406 14.191406 12.332031 14.21875 Z M 12.332031 14.21875 "/>
<path style=" stroke:none;fill-rule:nonzero;fill:rgb(100%,42.352941%,21.568627%);fill-opacity:1;" d="M 10.890625 16.320312 C 10.664062 16.320312 10.5 16.140625 10.5 15.914062 C 10.5 15.808594 10.546875 15.703125 10.621094 15.628906 L 12.152344 14.101562 C 12.242188 14.023438 12.359375 14.023438 12.449219 14.101562 L 13.726562 15.375 C 13.816406 15.449219 13.816406 15.585938 13.726562 15.675781 C 13.695312 15.703125 13.664062 15.71875 13.621094 15.734375 L 10.980469 16.304688 C 10.949219 16.304688 10.921875 16.320312 10.890625 16.320312 Z M 12.285156 14.386719 L 10.816406 15.855469 C 10.785156 15.886719 10.769531 15.929688 10.800781 15.976562 C 10.816406 16.019531 10.859375 16.035156 10.90625 16.019531 L 13.378906 15.480469 Z M 12.285156 14.386719 "/>
<path style=" stroke:none;fill-rule:nonzero;fill:rgb(100%,100%,100%);fill-opacity:1;" d="M 23.757812 6.121094 C 22.796875 5.191406 21.253906 5.222656 20.324219 6.195312 C 19.394531 7.171875 19.425781 8.699219 20.398438 9.632812 C 21.195312 10.394531 22.394531 10.53125 23.339844 9.960938 L 21.628906 8.25 Z M 23.757812 6.121094 "/>
<path style=" stroke:none;fill-rule:nonzero;fill:rgb(100%,42.352941%,21.568627%);fill-opacity:1;" d="M 22.078125 10.457031 C 20.652344 10.457031 19.5 9.300781 19.5 7.875 C 19.5 6.453125 20.652344 5.296875 22.078125 5.296875 C 22.738281 5.296875 23.382812 5.550781 23.863281 6.015625 C 23.894531 6.046875 23.910156 6.078125 23.910156 6.121094 C 23.910156 6.167969 23.894531 6.195312 23.863281 6.226562 L 21.839844 8.25 L 23.429688 9.839844 C 23.488281 9.902344 23.488281 9.992188 23.429688 10.050781 C 23.414062 10.066406 23.414062 10.066406 23.398438 10.082031 C 23.007812 10.320312 22.542969 10.457031 22.078125 10.457031 Z M 22.078125 5.613281 C 20.820312 5.613281 19.800781 6.632812 19.8125 7.890625 C 19.8125 9.152344 20.832031 10.171875 22.09375 10.15625 C 22.4375 10.15625 22.785156 10.082031 23.097656 9.914062 L 21.523438 8.355469 C 21.492188 8.328125 21.480469 8.296875 21.480469 8.25 C 21.480469 8.207031 21.492188 8.175781 21.523438 8.144531 L 23.535156 6.136719 C 23.128906 5.792969 22.617188 5.613281 22.078125 5.613281 Z M 22.078125 5.613281 "/>
<path style=" stroke:none;fill-rule:nonzero;fill:rgb(100%,100%,100%);fill-opacity:1;" d="M 23.804688 6.167969 L 23.773438 6.136719 L 21.628906 8.25 L 23.324219 9.945312 C 23.488281 9.839844 23.652344 9.722656 23.789062 9.585938 C 24.75 8.640625 24.75 7.113281 23.804688 6.167969 Z M 23.804688 6.167969 "/>
<path style=" stroke:none;fill-rule:nonzero;fill:rgb(100%,42.352941%,21.568627%);fill-opacity:1;" d="M 23.339844 10.109375 C 23.292969 10.109375 23.261719 10.097656 23.234375 10.066406 L 21.523438 8.355469 C 21.492188 8.328125 21.480469 8.296875 21.480469 8.25 C 21.480469 8.207031 21.492188 8.175781 21.523438 8.144531 L 23.652344 6.015625 C 23.714844 5.957031 23.804688 5.957031 23.863281 6.015625 L 23.910156 6.046875 C 24.914062 7.050781 24.914062 8.671875 23.921875 9.691406 C 23.773438 9.839844 23.609375 9.976562 23.429688 10.082031 C 23.382812 10.097656 23.351562 10.109375 23.339844 10.109375 Z M 21.839844 8.25 L 23.351562 9.765625 C 23.472656 9.691406 23.59375 9.585938 23.683594 9.496094 C 24.539062 8.640625 24.582031 7.246094 23.757812 6.347656 Z M 21.839844 8.25 "/>
<path style=" stroke:none;fill-rule:nonzero;fill:rgb(100%,100%,100%);fill-opacity:1;" d="M 20.667969 9.902344 C 20.308594 9.539062 19.722656 9.539062 19.363281 9.902344 L 13.710938 15.554688 L 14.65625 16.5 L 20.640625 11.25 C 21.027344 10.921875 21.058594 10.335938 20.730469 9.945312 C 20.699219 9.929688 20.683594 9.914062 20.667969 9.902344 Z M 20.667969 9.902344 "/>
<path style=" stroke:none;fill-rule:nonzero;fill:rgb(100%,42.352941%,21.568627%);fill-opacity:1;" d="M 14.640625 16.648438 C 14.59375 16.648438 14.566406 16.632812 14.535156 16.605469 L 13.589844 15.660156 C 13.53125 15.601562 13.53125 15.511719 13.589844 15.449219 L 19.246094 9.796875 C 19.664062 9.375 20.339844 9.375 20.757812 9.796875 C 21.179688 10.214844 21.179688 10.890625 20.757812 11.3125 C 20.742188 11.324219 20.730469 11.339844 20.714844 11.355469 L 14.730469 16.605469 C 14.714844 16.632812 14.683594 16.648438 14.640625 16.648438 Z M 13.921875 15.554688 L 14.65625 16.289062 L 20.535156 11.128906 C 20.863281 10.859375 20.894531 10.367188 20.625 10.035156 C 20.355469 9.707031 19.859375 9.675781 19.527344 9.945312 C 19.515625 9.960938 19.5 9.976562 19.46875 9.992188 Z M 13.921875 15.554688 "/>
<path style=" stroke:none;fill-rule:nonzero;fill:rgb(100%,100%,100%);fill-opacity:1;" d="M 9.375 21.988281 C 9.316406 22.019531 9.285156 22.078125 9.300781 22.140625 L 9.554688 23.21875 C 9.617188 23.367188 9.527344 23.546875 9.359375 23.59375 C 9.242188 23.636719 9.105469 23.59375 9.03125 23.503906 L 7.382812 21.867188 L 12.765625 16.484375 L 14.625 16.515625 L 15.886719 17.773438 C 15.585938 18.03125 13.769531 19.785156 9.375 21.988281 Z M 9.375 21.988281 "/>
<path style=" stroke:none;fill-rule:nonzero;fill:rgb(100%,42.352941%,21.568627%);fill-opacity:1;" d="M 9.257812 23.742188 C 9.136719 23.742188 9.015625 23.699219 8.941406 23.609375 L 7.304688 21.972656 C 7.277344 21.945312 7.261719 21.914062 7.261719 21.867188 C 7.261719 21.824219 7.277344 21.792969 7.304688 21.765625 L 12.691406 16.378906 C 12.71875 16.351562 12.765625 16.335938 12.796875 16.335938 L 14.65625 16.363281 C 14.699219 16.363281 14.730469 16.378906 14.761719 16.410156 L 16.019531 17.667969 C 16.050781 17.699219 16.066406 17.746094 16.066406 17.789062 C 16.066406 17.835938 16.050781 17.863281 16.003906 17.894531 L 15.898438 17.984375 C 14.308594 19.378906 12.152344 20.773438 9.464844 22.109375 L 9.722656 23.171875 C 9.765625 23.367188 9.675781 23.578125 9.496094 23.683594 C 9.40625 23.726562 9.332031 23.742188 9.257812 23.742188 Z M 7.605469 21.867188 L 9.152344 23.398438 C 9.195312 23.472656 9.285156 23.503906 9.359375 23.457031 C 9.4375 23.414062 9.464844 23.324219 9.421875 23.25 L 9.167969 22.167969 C 9.136719 22.035156 9.195312 21.914062 9.316406 21.855469 C 11.96875 20.519531 14.113281 19.140625 15.691406 17.773438 L 14.578125 16.664062 L 12.855469 16.632812 Z M 7.605469 21.867188 "/>
<path style=" stroke:none;fill-rule:nonzero;fill:rgb(100%,100%,100%);fill-opacity:1;" d="M 6.105469 23.160156 L 7.394531 21.867188 L 9.316406 23.789062 L 6.257812 23.578125 C 6.121094 23.5625 6.03125 23.445312 6.046875 23.308594 C 6.046875 23.25 6.0625 23.1875 6.105469 23.160156 Z M 6.105469 23.160156 "/>
<path style=" stroke:none;fill-rule:nonzero;fill:rgb(100%,42.352941%,21.568627%);fill-opacity:1;" d="M 9.316406 23.921875 L 6.242188 23.714844 C 6.015625 23.699219 5.867188 23.503906 5.882812 23.277344 C 5.898438 23.1875 5.925781 23.097656 6 23.039062 L 7.292969 21.75 C 7.351562 21.6875 7.441406 21.6875 7.5 21.75 L 9.421875 23.667969 C 9.464844 23.714844 9.480469 23.773438 9.449219 23.832031 C 9.421875 23.894531 9.375 23.921875 9.316406 23.921875 Z M 7.394531 22.078125 L 6.210938 23.261719 C 6.167969 23.292969 6.167969 23.367188 6.210938 23.398438 C 6.226562 23.414062 6.242188 23.429688 6.273438 23.429688 L 8.925781 23.609375 Z M 7.394531 22.078125 "/>
<path style=" stroke:none;fill-rule:nonzero;fill:rgb(100%,42.352941%,21.568627%);fill-opacity:1;" d="M 12.242188 17.175781 C 12.152344 17.175781 12.089844 17.101562 12.089844 17.023438 C 12.089844 16.980469 12.105469 16.949219 12.136719 16.917969 L 13.589844 15.464844 C 13.648438 15.40625 13.738281 15.40625 13.800781 15.464844 L 14.746094 16.410156 C 14.789062 16.453125 14.804688 16.5 14.789062 16.558594 C 14.773438 16.605469 14.730469 16.648438 14.671875 16.664062 L 12.269531 17.175781 C 12.253906 17.175781 12.242188 17.175781 12.242188 17.175781 Z M 13.695312 15.78125 L 12.707031 16.769531 L 14.324219 16.425781 Z M 13.695312 15.78125 "/>
<path style=" stroke:none;fill-rule:nonzero;fill:rgb(100%,100%,100%);fill-opacity:1;" d="M 14.625 16.515625 L 12.976562 16.875 C 12.855469 16.90625 12.734375 16.828125 12.707031 16.710938 C 12.691406 16.632812 12.707031 16.558594 12.765625 16.5 L 13.679688 15.585938 Z M 14.625 16.515625 "/>
<path style=" stroke:none;fill-rule:nonzero;fill:rgb(100%,42.352941%,21.568627%);fill-opacity:1;" d="M 12.945312 17.023438 C 12.734375 17.023438 12.570312 16.859375 12.570312 16.648438 C 12.570312 16.542969 12.617188 16.453125 12.675781 16.378906 L 13.589844 15.464844 C 13.648438 15.40625 13.738281 15.40625 13.800781 15.464844 L 14.746094 16.410156 C 14.789062 16.453125 14.804688 16.5 14.789062 16.558594 C 14.773438 16.605469 14.730469 16.648438 14.671875 16.664062 L 13.019531 17.023438 C 12.992188 17.023438 12.960938 17.023438 12.945312 17.023438 Z M 13.695312 15.78125 L 12.886719 16.589844 C 12.855469 16.621094 12.855469 16.648438 12.871094 16.679688 C 12.886719 16.710938 12.914062 16.726562 12.960938 16.726562 L 14.339844 16.425781 Z M 13.695312 15.78125 "/>
<path style=" stroke:none;fill-rule:nonzero;fill:rgb(100%,42.352941%,21.568627%);fill-opacity:1;" d="M 23.820312 7.605469 C 23.789062 7.515625 23.683594 7.472656 23.59375 7.5 C 23.503906 7.53125 23.457031 7.636719 23.488281 7.726562 C 23.488281 7.742188 23.503906 7.757812 23.503906 7.769531 C 23.59375 7.953125 23.5625 8.175781 23.445312 8.339844 C 23.382812 8.417969 23.398438 8.519531 23.457031 8.582031 C 23.535156 8.640625 23.636719 8.625 23.699219 8.550781 C 23.921875 8.265625 23.96875 7.90625 23.820312 7.605469 Z M 23.820312 7.605469 "/>
</g>
</svg>
