<svg xmlns="http://www.w3.org/2000/svg" xmlns:xlink="http://www.w3.org/1999/xlink" version="1.1" x="0px" y="0px" viewBox="0 0 512 640" style="enable-background:new 0 0 512 512;" xml:space="preserve"><path d="M425.6,160.8c-6.4-3.5-14.3-3.2-20.4,0.7L342,202v-1.6c0-27.6-22.3-50.4-49.9-50.4H126c-27.6,0-50,22.8-50,50.4v111.2  c0,27.6,22.4,50.4,50,50.4h166.1c27.6,0,49.9-22.8,49.9-50.4V310l63.1,40.5c3.3,2.1,7.1,3.2,10.8,3.2c3.3,0,6.6-0.8,9.6-2.5  c6.4-3.5,10.4-10.2,10.4-17.6V178.4C436,171,432,164.3,425.6,160.8z"/><text x="0" y="527" fill="#000000" font-size="5px" font-weight="bold" font-family="'Helvetica Neue', Helvetica, Arial-Unicode, Arial, Sans-serif">Created by Adiyogi</text><text x="0" y="532" fill="#000000" font-size="5px" font-weight="bold" font-family="'Helvetica Neue', Helvetica, Arial-Unicode, Arial, Sans-serif">from the Noun Project</text></svg>